<svg width="34" height="34" viewBox="0 0 34 34" fill="none" xmlns="http://www.w3.org/2000/svg">
<path d="M33 17C33 25.8366 25.8366 33 17 33C8.16344 33 1 25.8366 1 17C1 8.16344 8.16344 1 17 1C25.8366 1 33 8.16344 33 17Z" fill="white"/>
<path d="M1 17C1 8.16344 8.16344 1 17 1C25.8366 1 33 8.16344 33 17H1Z" fill="#AE002F" stroke="#390001" stroke-width="2"/>
<path fill-rule="evenodd" clip-rule="evenodd" d="M17 33C8.16344 33 1 25.8366 1 17H33C33 25.8366 25.8366 33 17 33Z" fill="white" stroke="#390001" stroke-width="2"/>
<circle cx="17.0884" cy="17.0884" r="5.77348" fill="white" stroke="#390001" stroke-width="2"/>
<circle cx="17.0884" cy="17.0884" r="2.14193" fill="#520001" stroke="#520001" stroke-width="0.31282"/>
</svg>
