<svg width="20" height="20" viewBox="0 0 20 20" fill="none" xmlns="http://www.w3.org/2000/svg">
<path fill-rule="evenodd" clip-rule="evenodd" d="M14.3846 7.30771C15.4467 7.30771 16.3077 6.44672 16.3077 5.38463C16.3077 4.32255 15.4467 3.46156 14.3846 3.46156C13.3225 3.46156 12.4615 4.32255 12.4615 5.38463C12.4615 6.44672 13.3225 7.30771 14.3846 7.30771ZM17.8462 5.38463C17.8462 7.29639 16.2964 8.84617 14.3846 8.84617C12.4729 8.84617 10.9231 7.29639 10.9231 5.38463C10.9231 3.47288 12.4729 1.9231 14.3846 1.9231C16.2964 1.9231 17.8462 3.47288 17.8462 5.38463Z" fill="white"/>
<path fill-rule="evenodd" clip-rule="evenodd" d="M5.15385 16.5385C6.21593 16.5385 7.07692 15.6775 7.07692 14.6154C7.07692 13.5533 6.21593 12.6923 5.15385 12.6923C4.09176 12.6923 3.23077 13.5533 3.23077 14.6154C3.23077 15.6775 4.09176 16.5385 5.15385 16.5385ZM8.61539 14.6154C8.61539 16.5272 7.0656 18.0769 5.15385 18.0769C3.24209 18.0769 1.69231 16.5272 1.69231 14.6154C1.69231 12.7036 3.24209 11.1539 5.15385 11.1539C7.0656 11.1539 8.61539 12.7036 8.61539 14.6154Z" fill="white"/>
<path fill-rule="evenodd" clip-rule="evenodd" d="M16.6923 5.6154C16.6923 5.23305 17.0023 4.9231 17.3846 4.9231L19.2308 4.9231C19.6131 4.9231 19.9231 5.23305 19.9231 5.6154C19.9231 5.99775 19.6131 6.30771 19.2308 6.30771H17.3846C17.0023 6.30771 16.6923 5.99775 16.6923 5.6154Z" fill="white"/>
<path fill-rule="evenodd" clip-rule="evenodd" d="M0 5.6154C0 5.19057 0.344396 4.84617 0.769231 4.84617H10.9231C11.3479 4.84617 11.6923 5.19057 11.6923 5.6154C11.6923 6.04024 11.3479 6.38463 10.9231 6.38463H0.769231C0.344396 6.38463 0 6.04024 0 5.6154Z" fill="white"/>
<path fill-rule="evenodd" clip-rule="evenodd" d="M0 14.8462C0 14.4213 0.344396 14.0769 0.769231 14.0769H1.69231C2.11714 14.0769 2.46154 14.4213 2.46154 14.8462C2.46154 15.271 2.11714 15.6154 1.69231 15.6154H0.769231C0.344396 15.6154 0 15.271 0 14.8462Z" fill="white"/>
<path fill-rule="evenodd" clip-rule="evenodd" d="M7.38462 14.8462C7.38462 14.4213 7.72901 14.0769 8.15385 14.0769L19.2308 14.0769C19.6556 14.0769 20 14.4213 20 14.8462C20 15.271 19.6556 15.6154 19.2308 15.6154L8.15385 15.6154C7.72901 15.6154 7.38462 15.271 7.38462 14.8462Z" fill="white"/>
</svg>
